<svg width="104" height="26" viewBox="0 0 104 26" fill="none" xmlns="http://www.w3.org/2000/svg">
<path d="M96.1566 21.553C92.8541 21.553 90.4362 20.3672 88.4311 18.4402L91.1734 15.1494C92.7362 16.5724 94.2694 17.4025 96.0976 17.4025C98.2206 17.4025 99.5475 16.3649 99.5475 14.5268V14.4675C99.5475 12.6887 98.0437 11.6511 95.8912 11.6511C94.5938 11.6511 93.4143 12.0069 92.4413 12.4219L89.817 10.6728L90.4067 0.444702H103.086V4.44699H94.2989L94.063 8.03422C94.8887 7.82669 95.6258 7.67846 96.7758 7.67846C100.786 7.67846 104 9.63513 104 14.3193V14.3786C104 18.7663 100.904 21.553 96.1566 21.553Z" fill="black"/>
<path d="M73.2983 21.1973V5.87006H75.5688V8.53825C76.5713 6.87804 78.1636 5.54395 80.7879 5.54395C84.4737 5.54395 86.6262 8.03425 86.6262 11.6808V21.1973H84.3558V12.2441C84.3558 9.39799 82.8225 7.6192 80.1392 7.6192C77.5149 7.6192 75.5688 9.54623 75.5688 12.4219V21.1973H73.2983Z" fill="black"/>
<path d="M62.2391 26.0001C59.7032 26.0001 57.3443 25.2885 55.3097 23.8655L56.3418 22.0867C58.0815 23.3615 60.0276 24.0434 62.2096 24.0434C65.571 24.0434 67.753 22.1757 67.753 18.5884V16.78C66.4261 18.5588 64.5685 20.0115 61.7673 20.0115C58.111 20.0115 54.6021 17.2543 54.6021 12.837V12.7777C54.6021 8.30107 58.1404 5.54395 61.7673 5.54395C64.6275 5.54395 66.4851 6.96698 67.7236 8.62718V5.87006H69.994V18.5291C69.994 20.9009 69.2863 22.7093 68.0479 23.9544C66.6915 25.3182 64.657 26.0001 62.2391 26.0001ZM62.2096 17.9955C65.0993 17.9955 67.812 15.8906 67.812 12.8073V12.7481C67.812 9.60552 65.0993 7.55991 62.2096 7.55991C59.3199 7.55991 56.9315 9.57587 56.9315 12.7184V12.7777C56.9315 15.8609 59.3789 17.9955 62.2096 17.9955Z" fill="black"/>
<path d="M49.5688 2.51996V0H52.1637V2.51996H49.5688ZM49.7163 21.1973V5.87002H51.9867V21.1973H49.7163Z" fill="black"/>
<path d="M41.6356 21.4937C39.4536 21.4937 37.0357 20.6339 35.3255 19.2406L36.4755 17.61C38.1267 18.8552 39.9549 19.5667 41.7536 19.5667C43.5817 19.5667 44.9086 18.618 44.9086 17.1357V17.0764C44.9086 15.5347 43.1099 14.9418 41.1049 14.3785C38.7165 13.6967 36.0627 12.8666 36.0627 10.0501V9.99084C36.0627 7.3523 38.2447 5.60315 41.2523 5.60315C43.1099 5.60315 45.174 6.25537 46.7368 7.293L45.7048 9.0125C44.2894 8.09346 42.6676 7.53017 41.1933 7.53017C39.3946 7.53017 38.2447 8.47886 38.2447 9.75367V9.81296C38.2447 11.2656 40.1318 11.8289 42.1664 12.4515C44.5253 13.163 47.0611 14.0821 47.0611 16.8392V16.8985C47.0611 19.8038 44.6727 21.4937 41.6356 21.4937Z" fill="black"/>
<path d="M27.5765 21.5531C23.3895 21.5531 19.969 18.3216 19.969 13.5782V13.5189C19.969 9.10153 23.0651 5.54395 27.2817 5.54395C31.7931 5.54395 34.3879 9.16082 34.3879 13.6374C34.3879 13.9339 34.3879 14.1118 34.3584 14.3786H22.269C22.5933 17.699 24.9228 19.5668 27.6355 19.5668C29.7291 19.5668 31.2034 18.707 32.4418 17.4026L33.8572 18.6774C32.3239 20.3969 30.4662 21.5531 27.5765 21.5531ZM22.269 12.6888H32.088C31.8521 9.90199 30.2598 7.47097 27.2227 7.47097C24.5689 7.47097 22.5638 9.69446 22.269 12.6888Z" fill="black"/>
<path d="M0 21.1972V0.444651H7.16522C13.6522 0.444651 18.1342 4.92128 18.1342 10.7616V10.8209C18.1342 16.6613 13.6522 21.1972 7.16522 21.1972H0ZM7.16522 2.60885H2.32943V19.033H7.16522C12.3843 19.033 15.7163 15.4754 15.7163 10.8802V10.8209C15.7163 6.22573 12.3843 2.60885 7.16522 2.60885Z" fill="black"/>
</svg>
